<svg id="a" xmlns="http://www.w3.org/2000/svg" viewBox="0 0 1568.35 587.51"><defs><style>.cls-1,.cls-5,.cls-6,.cls-7{fill:#069;}.cls-1,.cls-10,.cls-11,.cls-12,.cls-13{fill-rule:evenodd;}.cls-2{fill:#378eb3;}.cls-3{fill:none;stroke:#069;stroke-linecap:round;stroke-linejoin:round;stroke-width:0.71px;}.cls-4,.cls-6,.cls-7,.cls-8,.cls-9{isolation:isolate;}.cls-5,.cls-6,.cls-7{font-size:177.22px;}.cls-5,.cls-6,.cls-7,.cls-8,.cls-9{font-family:ArialMT, Arial;}.cls-6{letter-spacing:-0.09em;}.cls-8,.cls-9{font-size:110.76px;fill:#fff;}.cls-8{letter-spacing:-0.13em;}.cls-10{fill:red;}.cls-11{fill:lime;}.cls-12{fill:#2586da;}.cls-13{fill:#ffbf00;}</style></defs><g id="b"><polygon class="cls-1" points="428.93 52.76 222.77 171.79 222.77 230.31 222.77 365.21 222.77 409.85 428.93 528.88 635.1 409.85 635.1 385.42 621.77 385.42 621.77 402.15 428.93 513.48 236.1 402.15 236.1 353.18 236.1 242.34 236.1 179.48 428.93 68.15 621.77 179.48 621.77 196.74 635.1 196.74 635.1 171.79 428.93 52.76"/><rect class="cls-2" x="0.35" transform="translate(0.7 0) rotate(180)"/></g><g id="c"><polyline class="cls-3" points="621.77 196.74 621.77 179.48 428.93 68.15 236.1 179.48 236.1 242.34"/></g><g id="d"><polyline class="cls-3" points="635.1 196.74 635.1 171.79 428.93 52.76 222.77 171.79 222.77 230.31"/></g><g id="e"><polyline class="cls-3" points="236.1 353.18 236.1 402.15 428.93 513.48 621.77 402.15 621.77 385.42"/></g><g id="f"><polyline class="cls-3" points="222.77 365.21 222.77 409.85 428.93 528.88 635.1 409.85 635.1 385.42"/></g><g id="g"><g class="cls-4"><text class="cls-5" transform="translate(261.9 355.73)">HEX</text><text class="cls-6" transform="translate(626.28 355.73)">T</text><text class="cls-7" transform="translate(721.38 355.73)">ASPHERE</text></g></g><g id="h"><line class="cls-3" x1="621.77" y1="196.74" x2="635.1" y2="196.74"/></g><g id="i"><line class="cls-3" x1="621.77" y1="385.42" x2="635.1" y2="385.42"/></g><g id="j"><g class="cls-4"><text class="cls-8" transform="translate(907.21 459.34)">T</text><text class="cls-9" transform="translate(962.59 459.34)">echnologies</text></g></g><g id="k"><path class="cls-3" d="M235.1,242.34a55.42,55.42,0,1,0,0,110.84"/></g><g id="l"><path class="cls-3" d="M221.77,230.31a68.75,68.75,0,0,0,0,134.89"/></g><g id="m"><path class="cls-1" d="M227.27,123.52,280.6,92.73V31.15L227.27.35,173.94,31.14V92.72l53.33,30.79M178.65,90V33.86L227.28,5.79l48.63,28.07V90l-48.63,28.07Z"/></g><g id="n"><polygon class="cls-10" points="275.9 90.01 275.9 33.86 227.27 5.79 178.65 33.86 178.65 90.01 227.27 118.09 275.9 90.01"/></g><g id="o"><polygon class="cls-3" points="275.9 33.86 227.27 5.79 178.65 33.86 178.65 90.01 227.27 118.09 275.9 90.01 275.9 33.86"/></g><g id="p"><polygon class="cls-1" points="103.42 166.03 107.02 168.11 107.02 170.2 193.99 155.69 200.61 108.12 196.21 105.58 189.81 151.62 103.42 166.03"/></g><g id="q"><polygon class="cls-3" points="280.61 31.15 227.27 0.35 173.94 31.15 173.94 92.73 227.27 123.52 280.61 92.73 280.61 31.15"/></g><g id="r"><path class="cls-1" d="M53.69,260.48,107,229.69V168.11L53.69,137.32.35,168.11v61.58l53.33,30.79M5.06,227V170.82l48.63-28.07,48.63,28.07V227L53.69,255Z"/></g><g id="s"><polygon class="cls-11" points="5.06 170.83 5.06 226.97 53.69 255.05 102.31 226.97 102.31 170.83 53.69 142.75 5.06 170.83"/></g><g id="t"><polygon class="cls-3" points="102.31 170.83 53.69 142.75 5.06 170.83 5.06 226.97 53.69 255.05 102.31 226.97 102.31 170.83"/></g><g id="u"><polygon class="cls-3" points="107.02 168.11 53.69 137.32 0.35 168.11 0.35 229.69 53.69 260.48 107.02 229.69 107.02 168.11"/></g><g id="v"><path class="cls-1" d="M53.69,431.69,107,400.9V339.32L53.69,308.53.35,339.32V400.9l53.33,30.79M5.06,398.18V342L53.69,314,102.32,342v56.15L53.69,426.25Z"/></g><g id="w"><polygon class="cls-12" points="53.69 426.26 102.31 398.18 102.31 342.03 53.69 313.96 5.06 342.03 5.06 398.18 53.69 426.26"/></g><g id="x"><polygon class="cls-3" points="102.31 342.03 53.69 313.96 5.06 342.03 5.06 398.18 53.69 426.26 102.31 398.18 102.31 342.03"/></g><g id="y"><polygon class="cls-3" points="107.02 339.32 53.69 308.52 0.35 339.32 0.35 400.9 53.69 431.69 107.02 400.9 107.02 339.32"/></g><g id="z"><path class="cls-1" d="M227.27,587.16l53.33-30.79V494.79L227.27,464l-53.33,30.79v61.58l53.33,30.79m-48.62-33.51V497.5l48.63-28.07,48.63,28.07v56.15l-48.63,28.07Z"/></g><g id="aa"><polygon class="cls-13" points="227.27 581.73 275.9 553.65 275.9 497.5 227.27 469.43 178.65 497.5 178.65 553.65 227.27 581.73"/></g><g id="ab"><polygon class="cls-3" points="275.9 497.5 227.27 469.43 178.65 497.5 178.65 553.65 227.27 581.73 275.9 553.65 275.9 497.5"/></g><g id="ac"><polygon class="cls-3" points="280.61 494.79 227.27 464 173.94 494.79 173.94 556.37 227.27 587.16 280.61 556.37 280.61 494.79"/></g><g id="ad"><line class="cls-3" x1="107.02" y1="170.2" x2="193.99" y2="155.69"/></g><g id="ae"><line class="cls-3" x1="100.61" y1="166.5" x2="189.81" y2="151.62"/></g><g id="af"><line class="cls-3" x1="193.99" y1="155.69" x2="200.61" y2="108.12"/></g><g id="ag"><line class="cls-3" x1="189.81" y1="151.62" x2="196.21" y2="105.58"/></g></svg>